<svg version="1.1" viewBox="0 0 1024 1024" xmlns="http://www.w3.org/2000/svg">
  <g stroke="lightgray" stroke-dasharray="1,1" stroke-width="1" transform="scale(4, 4)">
    <line x1="0" y1="0" x2="256" y2="256"></line>
    <line x1="256" y1="0" x2="0" y2="256"></line>
    <line x1="128" y1="0" x2="128" y2="256"></line>
    <line x1="0" y1="128" x2="256" y2="128"></line>
  </g>
  <g transform="scale(1, -1) translate(0, -900)">
    <style type="text/css">
      
        @keyframes keyframes0 {
          from {
            stroke: blue;
            stroke-dashoffset: 1067;
            stroke-width: 128;
          }
          78% {
            animation-timing-function: step-end;
            stroke: blue;
            stroke-dashoffset: 0;
            stroke-width: 128;
          }
          to {
            stroke: black;
            stroke-width: 1024;
          }
        }
        #make-me-a-hanzi-animation-0 {
          animation: keyframes0 1.1183268229166667s both;
          animation-delay: 0s;
          animation-timing-function: linear;
        }
      
    </style>
    
      <!-- "六"자 기본 경로 -->
      <path d="M 200 300 Q 400 100 600 300 Q 700 400 600 500 Q 400 700 200 500 Q 100 400 200 300 Z" fill="lightgray"></path>
    
      <!-- 클립패스 정의 -->
      <clipPath id="make-me-a-hanzi-clip-0">
        <path d="M 200 300 Q 400 100 600 300 Q 700 400 600 500 Q 400 700 200 500 Q 100 400 200 300 Z"></path>
      </clipPath>
      
      <!-- 애니메이션 경로 -->
      <path clip-path="url(#make-me-a-hanzi-clip-0)" d="M 200 300 L 400 100 L 600 300 L 700 400 L 600 500 L 400 700 L 200 500 L 100 400 L 200 300" fill="none" id="make-me-a-hanzi-animation-0" stroke-dasharray="939 1878" stroke-linecap="round"></path>
    
  </g>
</svg>
